<mxfile host="app.diagrams.net" modified="2021-07-12T11:04:50.730Z" agent="5.0 (Macintosh; Intel Mac OS X 10_15_7) AppleWebKit/537.36 (KHTML, like Gecko) Chrome/91.0.4472.114 Safari/537.36" etag="IWzGGAxO15iNtWqdVL8z" version="14.8.5" type="github">
  <diagram id="cb-TSlpXkkvhrSAXmfEZ" name="Page-1">
    <mxGraphModel dx="946" dy="646" grid="1" gridSize="10" guides="1" tooltips="1" connect="1" arrows="1" fold="1" page="1" pageScale="1" pageWidth="827" pageHeight="1169" math="0" shadow="0">
      <root>
        <mxCell id="0" />
        <mxCell id="1" parent="0" />
        <mxCell id="nAag5MHlNy-MG2vHLQIz-2" value="DATA available on Cloud" style="swimlane;fontStyle=0;childLayout=stackLayout;horizontal=1;startSize=26;fillColor=none;horizontalStack=0;resizeParent=1;resizeParentMax=0;resizeLast=0;collapsible=1;marginBottom=0;fontSize=14;" parent="1" vertex="1">
          <mxGeometry x="411" y="150" width="240" height="98" as="geometry" />
        </mxCell>
        <mxCell id="nAag5MHlNy-MG2vHLQIz-3" value="Sequence Read Archive (SRA) data" style="text;strokeColor=none;fillColor=none;align=left;verticalAlign=top;spacingLeft=4;spacingRight=4;overflow=hidden;rotatable=0;points=[[0,0.5],[1,0.5]];portConstraint=eastwest;" parent="nAag5MHlNy-MG2vHLQIz-2" vertex="1">
          <mxGeometry y="26" width="240" height="24" as="geometry" />
        </mxCell>
        <mxCell id="8YdzJCJYcOsDjFqOoVUw-2" value="Basic Local Alignment Search Tool(BLAST)" style="text;strokeColor=none;fillColor=none;align=left;verticalAlign=top;spacingLeft=4;spacingRight=4;overflow=hidden;rotatable=0;points=[[0,0.5],[1,0.5]];portConstraint=eastwest;" parent="nAag5MHlNy-MG2vHLQIz-2" vertex="1">
          <mxGeometry y="50" width="240" height="24" as="geometry" />
        </mxCell>
        <mxCell id="8YdzJCJYcOsDjFqOoVUw-3" value="Illumina" style="text;strokeColor=none;fillColor=none;align=left;verticalAlign=top;spacingLeft=4;spacingRight=4;overflow=hidden;rotatable=0;points=[[0,0.5],[1,0.5]];portConstraint=eastwest;" parent="nAag5MHlNy-MG2vHLQIz-2" vertex="1">
          <mxGeometry y="74" width="240" height="24" as="geometry" />
        </mxCell>
        <mxCell id="8YdzJCJYcOsDjFqOoVUw-5" value="" style="outlineConnect=0;dashed=0;verticalLabelPosition=bottom;verticalAlign=top;align=center;html=1;shape=mxgraph.aws3.cloud_2;fillColor=#F58534;gradientColor=none;" parent="1" vertex="1">
          <mxGeometry x="10" y="10" width="50" height="50" as="geometry" />
        </mxCell>
        <mxCell id="8YdzJCJYcOsDjFqOoVUw-6" value="Amazon EC2" style="outlineConnect=0;fontColor=#232F3E;gradientColor=none;strokeColor=#ffffff;fillColor=#232F3E;dashed=0;verticalLabelPosition=middle;verticalAlign=bottom;align=center;html=1;whiteSpace=wrap;fontSize=10;fontStyle=1;spacing=3;shape=mxgraph.aws4.productIcon;prIcon=mxgraph.aws4.ec2;" parent="1" vertex="1">
          <mxGeometry x="10" y="90" width="80" height="100" as="geometry" />
        </mxCell>
        <mxCell id="8YdzJCJYcOsDjFqOoVUw-14" value="EC2 Instances" style="outlineConnect=0;fontColor=#232F3E;gradientColor=none;strokeColor=#232F3E;dashed=0;verticalLabelPosition=bottom;verticalAlign=top;align=center;html=1;fontSize=12;fontStyle=0;aspect=fixed;shape=mxgraph.aws4.resourceIcon;resIcon=mxgraph.aws4.instances;fillColor=none;" parent="1" vertex="1">
          <mxGeometry x="430" y="569" width="270" height="270" as="geometry" />
        </mxCell>
        <mxCell id="8YdzJCJYcOsDjFqOoVUw-15" value="AWS Batch" style="outlineConnect=0;fontColor=#232F3E;gradientColor=none;strokeColor=#ffffff;fillColor=#232F3E;dashed=0;verticalLabelPosition=middle;verticalAlign=bottom;align=center;html=1;whiteSpace=wrap;fontSize=10;fontStyle=1;spacing=3;shape=mxgraph.aws4.productIcon;prIcon=mxgraph.aws4.batch;" parent="1" vertex="1">
          <mxGeometry x="240" y="646" width="80" height="100" as="geometry" />
        </mxCell>
        <mxCell id="8YdzJCJYcOsDjFqOoVUw-17" value="Amazon EKS" style="outlineConnect=0;fontColor=#232F3E;gradientColor=none;strokeColor=#ffffff;fillColor=#232F3E;dashed=0;verticalLabelPosition=middle;verticalAlign=bottom;align=center;html=1;whiteSpace=wrap;fontSize=10;fontStyle=1;spacing=3;shape=mxgraph.aws4.productIcon;prIcon=mxgraph.aws4.eks;" parent="1" vertex="1">
          <mxGeometry x="10" y="440" width="80" height="100" as="geometry" />
        </mxCell>
        <mxCell id="8YdzJCJYcOsDjFqOoVUw-18" value="Elastic Load Balancing" style="outlineConnect=0;fontColor=#232F3E;gradientColor=none;strokeColor=#ffffff;fillColor=#232F3E;dashed=0;verticalLabelPosition=middle;verticalAlign=bottom;align=center;html=1;whiteSpace=wrap;fontSize=10;fontStyle=1;spacing=3;shape=mxgraph.aws4.productIcon;prIcon=mxgraph.aws4.elastic_load_balancing;" parent="1" vertex="1">
          <mxGeometry x="10" y="318" width="80" height="110" as="geometry" />
        </mxCell>
        <mxCell id="8YdzJCJYcOsDjFqOoVUw-19" value="Amazon S3" style="outlineConnect=0;fontColor=#232F3E;gradientColor=none;strokeColor=#ffffff;fillColor=#232F3E;dashed=0;verticalLabelPosition=middle;verticalAlign=bottom;align=center;html=1;whiteSpace=wrap;fontSize=10;fontStyle=1;spacing=3;shape=mxgraph.aws4.productIcon;prIcon=mxgraph.aws4.s3;" parent="1" vertex="1">
          <mxGeometry x="470" y="360" width="80" height="100" as="geometry" />
        </mxCell>
        <mxCell id="8YdzJCJYcOsDjFqOoVUw-20" value="Amazon Elastic Block Store" style="outlineConnect=0;fontColor=#232F3E;gradientColor=none;strokeColor=#ffffff;fillColor=#232F3E;dashed=0;verticalLabelPosition=middle;verticalAlign=bottom;align=center;html=1;whiteSpace=wrap;fontSize=10;fontStyle=1;spacing=3;shape=mxgraph.aws4.productIcon;prIcon=mxgraph.aws4.elastic_block_store;" parent="1" vertex="1">
          <mxGeometry x="10" y="680" width="80" height="110" as="geometry" />
        </mxCell>
        <mxCell id="8YdzJCJYcOsDjFqOoVUw-21" value="Amazon RDS" style="outlineConnect=0;fontColor=#232F3E;gradientColor=none;strokeColor=#ffffff;fillColor=#232F3E;dashed=0;verticalLabelPosition=middle;verticalAlign=bottom;align=center;html=1;whiteSpace=wrap;fontSize=10;fontStyle=1;spacing=3;shape=mxgraph.aws4.productIcon;prIcon=mxgraph.aws4.rds;" parent="1" vertex="1">
          <mxGeometry x="510" y="912" width="80" height="100" as="geometry" />
        </mxCell>
        <mxCell id="8YdzJCJYcOsDjFqOoVUw-22" value="Amazon VPC" style="outlineConnect=0;fontColor=#232F3E;gradientColor=none;strokeColor=#ffffff;fillColor=#232F3E;dashed=0;verticalLabelPosition=middle;verticalAlign=bottom;align=center;html=1;whiteSpace=wrap;fontSize=10;fontStyle=1;spacing=3;shape=mxgraph.aws4.productIcon;prIcon=mxgraph.aws4.vpc;" parent="1" vertex="1">
          <mxGeometry x="10" y="560" width="80" height="100" as="geometry" />
        </mxCell>
        <mxCell id="8YdzJCJYcOsDjFqOoVUw-23" value="Auto Scaling group" style="points=[[0,0],[0.25,0],[0.5,0],[0.75,0],[1,0],[1,0.25],[1,0.5],[1,0.75],[1,1],[0.75,1],[0.5,1],[0.25,1],[0,1],[0,0.75],[0,0.5],[0,0.25]];outlineConnect=0;gradientColor=none;html=1;whiteSpace=wrap;fontSize=12;fontStyle=0;shape=mxgraph.aws4.groupCenter;grIcon=mxgraph.aws4.group_auto_scaling_group;grStroke=1;strokeColor=#D86613;fillColor=none;verticalAlign=top;align=center;fontColor=#D86613;dashed=1;spacingTop=25;" parent="1" vertex="1">
          <mxGeometry x="410" y="530" width="290" height="320" as="geometry" />
        </mxCell>
        <mxCell id="8YdzJCJYcOsDjFqOoVUw-25" value="" style="edgeStyle=orthogonalEdgeStyle;html=1;endArrow=none;elbow=vertical;startArrow=block;startFill=1;strokeColor=#545B64;rounded=0;" parent="1" edge="1">
          <mxGeometry width="100" relative="1" as="geometry">
            <mxPoint x="510" y="459" as="sourcePoint" />
            <mxPoint x="510" y="529" as="targetPoint" />
          </mxGeometry>
        </mxCell>
        <mxCell id="8YdzJCJYcOsDjFqOoVUw-27" value="" style="edgeStyle=orthogonalEdgeStyle;html=1;endArrow=none;elbow=vertical;startArrow=block;startFill=1;strokeColor=#545B64;rounded=0;" parent="1" edge="1">
          <mxGeometry width="100" relative="1" as="geometry">
            <mxPoint x="410" y="690" as="sourcePoint" />
            <mxPoint x="344" y="689.5" as="targetPoint" />
            <Array as="points">
              <mxPoint x="320" y="690" />
              <mxPoint x="320" y="690" />
            </Array>
          </mxGeometry>
        </mxCell>
        <mxCell id="zd9uLdABn5-Gz7d9Lu7q-1" value="AWS Data Pipeline" style="outlineConnect=0;fontColor=#232F3E;gradientColor=none;strokeColor=#ffffff;fillColor=#232F3E;dashed=0;verticalLabelPosition=middle;verticalAlign=bottom;align=center;html=1;whiteSpace=wrap;fontSize=10;fontStyle=1;spacing=3;shape=mxgraph.aws4.productIcon;prIcon=mxgraph.aws4.data_pipeline;" parent="1" vertex="1">
          <mxGeometry x="10" y="800" width="80" height="110" as="geometry" />
        </mxCell>
        <mxCell id="4oGoYePOnIosjLlGstFI-2" value="" style="endArrow=classic;html=1;" edge="1" parent="1">
          <mxGeometry width="50" height="50" relative="1" as="geometry">
            <mxPoint x="549.5" y="850" as="sourcePoint" />
            <mxPoint x="550" y="910" as="targetPoint" />
          </mxGeometry>
        </mxCell>
        <mxCell id="4oGoYePOnIosjLlGstFI-3" value="Docker Image" style="swimlane;fontSize=11;" vertex="1" parent="1">
          <mxGeometry x="70" y="930" width="101" height="90" as="geometry">
            <mxRectangle x="200" y="550" width="100" height="23" as="alternateBounds" />
          </mxGeometry>
        </mxCell>
        <mxCell id="4oGoYePOnIosjLlGstFI-4" value="&lt;font style=&quot;font-size: 11px&quot;&gt;CWL&lt;br&gt;Batch Code&lt;br&gt;Jupyter Notebook&lt;/font&gt;" style="text;html=1;align=center;verticalAlign=middle;resizable=0;points=[];autosize=1;strokeColor=none;" vertex="1" parent="4oGoYePOnIosjLlGstFI-3">
          <mxGeometry x="-3" y="37" width="100" height="50" as="geometry" />
        </mxCell>
        <mxCell id="4oGoYePOnIosjLlGstFI-5" value="" style="edgeStyle=orthogonalEdgeStyle;html=1;endArrow=none;elbow=vertical;startArrow=block;startFill=1;strokeColor=#545B64;rounded=0;" edge="1" parent="1">
          <mxGeometry width="100" relative="1" as="geometry">
            <mxPoint x="511" y="361" as="sourcePoint" />
            <mxPoint x="511" y="291" as="targetPoint" />
            <Array as="points">
              <mxPoint x="511" y="251" />
              <mxPoint x="511" y="251" />
            </Array>
          </mxGeometry>
        </mxCell>
      </root>
    </mxGraphModel>
  </diagram>
</mxfile>
